<svg xmlns="http://www.w3.org/2000/svg" width="24" height="24" viewBox="0 0 24 24">
    <g fill="#108EE9" fill-rule="nonzero">
        <path d="M17.634 2H1.366C.613 2 0 2.66 0 3.472v10.522c0 .812.613 1.472 1.366 1.472H2.42v3.917c0 .25.139.475.353.57.07.032.145.047.219.047a.552.552 0 0 0 .404-.18l4.038-4.354h.81c.317 0 .573-.276.573-.617 0-.34-.257-.616-.572-.616 0 0-1.075 0-1.086.002a.552.552 0 0 0-.366.178l-3.23 3.481s0-3.084-.002-3.1c-.026-.314-.27-.561-.57-.561H1.366c-.122 0-.222-.107-.222-.239V3.472c0-.131.1-.239.222-.239h16.268c.123 0 .222.108.222.24v4.036c0 .34.256.617.572.617.316 0 .572-.276.572-.617V3.472C19 2.66 18.387 2 17.634 2z"/>
        <path d="M22.55 8h-12.1C9.65 8 9 8.69 9 9.536v7.49c0 .847.65 1.536 1.45 1.536h7.575l3.069 3.25a.591.591 0 0 0 .662.139.645.645 0 0 0 .375-.595v-2.794h.418c.8 0 1.451-.689 1.451-1.536v-7.49C24 8.69 23.35 8 22.55 8zm.234 9.026c0 .137-.105.25-.235.25h-1.025c-.32 0-.582.26-.606.593l-.002 1.934-2.207-2.337-.007-.007a.586.586 0 0 0-.425-.184h-7.826c-.13 0-.235-.112-.235-.249v-7.49c0-.137.105-.249.235-.249h12.098c.13 0 .235.112.235.25v7.49z"/>
        <path d="M17.5 15a.5.5 0 1 0 0 1 .5.5 0 0 0 0-1zM15.356 6H3.644C3.288 6 3 6.224 3 6.5s.288.5.644.5h11.712c.356 0 .644-.224.644-.5s-.288-.5-.644-.5zM7.439 9H3.56C3.251 9 3 9.224 3 9.5s.251.5.561.5H7.44c.31 0 .561-.224.561-.5S7.749 9 7.439 9zM15.5 15a.5.5 0 1 0 0 1 .5.5 0 0 0 0-1zM20.5 15a.5.5 0 1 0 0 1 .5.5 0 0 0 0-1z"/>
    </g>
</svg>
