<svg xmlns="http://www.w3.org/2000/svg" width="24" height="24" viewBox="0 0 24 24">
    <g fill="#000" fill-opacity=".6" fill-rule="nonzero">
        <path d="M23.03 10.832H.97c-.536 0-.97.58-.97 1.293 0 .714.434 1.293.97 1.293h22.06c.536 0 .97-.58.97-1.293 0-.714-.434-1.293-.97-1.293zM23.03 1.027H.97c-.536 0-.97.58-.97 1.293 0 .714.434 1.293.97 1.293h22.06c.536 0 .97-.58.97-1.293 0-.714-.434-1.293-.97-1.293zM23.03 20.637H.97c-.536 0-.97.579-.97 1.293s.434 1.293.97 1.293h22.06c.536 0 .97-.58.97-1.293 0-.714-.434-1.293-.97-1.293z"/>
    </g>
</svg>
