<svg xmlns="http://www.w3.org/2000/svg" width="64" height="64" viewBox="0 0 64 64">
    <g fill="#108EE9" fill-rule="nonzero">
        <path d="M47.898 13.87L9.537 31.536a1.078 1.078 0 0 0 .27 2.04L26.79 36.43l1.94 16.091a1.077 1.077 0 0 0 1.066.947c.402 0 .779-.227.96-.598l18.55-37.544a1.08 1.08 0 0 0-.192-1.228 1.07 1.07 0 0 0-1.217-.227zM30.43 48.687l-1.605-13.313a1.076 1.076 0 0 0-.888-.932l-14.334-2.41 32.435-14.936L30.43 48.686z"/>
        <path d="M32 0C14.355 0 0 14.355 0 32s14.355 32 32 32 32-14.355 32-32S49.645 0 32 0zm0 61.867C15.532 61.867 2.133 48.468 2.133 32 2.133 15.532 15.532 2.133 32 2.133c16.468 0 29.867 13.399 29.867 29.867 0 16.468-13.399 29.867-29.867 29.867z"/>
    </g>
</svg>
